<svg width="19" height="19" viewBox="0 0 19 19" fill="none" xmlns="http://www.w3.org/2000/svg">
<path d="M17.7439 9.25193C15.9653 5.96387 12.8461 3.97415 9.39444 3.97415C5.94278 3.97415 2.81833 5.96387 1.05556 9.25193L0.907778 9.49998L1.045 9.75332C2.82361 13.0414 5.94278 15.0311 9.39444 15.0311C12.8461 15.0311 15.9706 13.0678 17.7439 9.75332L17.8811 9.49998L17.7439 9.25193ZM9.39444 13.9492C6.42306 13.9492 3.69444 12.2919 2.11111 9.49998C3.69444 6.70804 6.42306 5.05082 9.39444 5.05082C12.3658 5.05082 15.0628 6.71332 16.6725 9.49998C15.0628 12.2919 12.3606 13.9492 9.39444 13.9492V13.9492Z" fill="#323232"/>
<path d="M9.5475 5.89527C8.8319 5.90049 8.13389 6.11766 7.54164 6.51936C6.94939 6.92105 6.48946 7.48924 6.21995 8.15217C5.95043 8.81511 5.88342 9.54304 6.02738 10.244C6.17133 10.945 6.51979 11.5876 7.02875 12.0907C7.53771 12.5938 8.18434 12.9347 8.88696 13.0705C9.58959 13.2063 10.3167 13.1308 10.9764 12.8536C11.6362 12.5764 12.199 12.1099 12.5938 11.513C12.9885 10.9161 13.1976 10.2156 13.1944 9.49999C13.1924 9.02364 13.0963 8.55238 12.9118 8.11321C12.7273 7.67405 12.4579 7.27561 12.1191 6.94075C11.7803 6.60588 11.3788 6.34116 10.9375 6.16175C10.4962 5.98235 10.0238 5.89179 9.5475 5.89527V5.89527ZM9.5475 12.0808C9.04202 12.0756 8.54936 11.9212 8.13137 11.6369C7.71339 11.3526 7.38873 10.9511 7.19817 10.4829C7.00761 10.0147 6.95965 9.50061 7.0603 9.00522C7.16096 8.50984 7.40574 8.05525 7.76392 7.69853C8.12209 7.34182 8.57768 7.09889 9.07347 7.00026C9.56925 6.90163 10.0831 6.95169 10.5506 7.14416C11.018 7.33663 11.4181 7.66293 11.7007 8.08206C11.9833 8.5012 12.1357 8.9945 12.1389 9.49999C12.1403 9.8402 12.0742 10.1773 11.9443 10.4917C11.8144 10.8062 11.6234 11.0917 11.3824 11.3318C11.1413 11.5719 10.855 11.7617 10.54 11.8903C10.2251 12.0189 9.8877 12.0836 9.5475 12.0808V12.0808Z" fill="#323232"/>
</svg>
