<svg width="19" height="19" viewBox="0 0 19 19" fill="none" xmlns="http://www.w3.org/2000/svg">
<path d="M9.956 13.1499H14.63C15.4812 13.1499 16.15 12.4726 16.15 11.6622V5.28771C16.15 4.47736 15.4812 3.80001 14.63 3.80001H4.37C3.5188 3.80001 2.85 4.47736 2.85 5.28771V11.6622C2.85 12.4726 3.5188 13.1499 4.37 13.1499H5.89V16.15H5.89285L5.89475 16.1491L9.95695 13.1499H9.956ZM6.46 16.9129C6.25776 17.0619 6.00508 17.1256 5.75634 17.0903C5.5076 17.0549 5.28268 16.9233 5.13 16.7238C5.0076 16.5626 4.94122 16.3657 4.94095 16.1633V14.0999H4.37095C3.00675 14.0999 1.90095 13.0084 1.90095 11.6622V5.28771C1.9 3.94156 3.0058 2.85001 4.37 2.85001H14.63C15.9942 2.85001 17.1 3.94156 17.1 5.28771V11.6622C17.1 13.0093 15.9942 14.0999 14.63 14.0999H10.2695L6.45905 16.9129H6.46Z" fill="#323232"/>
</svg>
