<svg width="19" height="19" viewBox="0 0 19 19" fill="none" xmlns="http://www.w3.org/2000/svg">
<path d="M10.6504 12.3463C10.6225 12.3187 10.5848 12.3032 10.5456 12.3032C10.5063 12.3032 10.4686 12.3187 10.4407 12.3463L8.28467 14.5023C7.28642 15.5006 5.60166 15.6063 4.49951 14.5023C3.3955 13.3983 3.50127 11.7154 4.49951 10.7172L6.65556 8.56113C6.71308 8.50361 6.71308 8.40898 6.65556 8.35146L5.91709 7.61299C5.88919 7.58536 5.85151 7.56986 5.81225 7.56986C5.77299 7.56986 5.73532 7.58536 5.70742 7.61299L3.55136 9.76904C1.98164 11.3388 1.98164 13.8789 3.55136 15.4468C5.12109 17.0146 7.66123 17.0165 9.2291 15.4468L11.3852 13.2907C11.4427 13.2332 11.4427 13.1386 11.3852 13.0811L10.6504 12.3463ZM15.4486 3.55136C13.8789 1.98164 11.3388 1.98164 9.7709 3.55136L7.61299 5.70742C7.58536 5.73532 7.56986 5.77299 7.56986 5.81225C7.56986 5.85151 7.58536 5.88919 7.61299 5.91709L8.34961 6.65371C8.40713 6.71123 8.50175 6.71123 8.55927 6.65371L10.7153 4.49765C11.7136 3.49941 13.3983 3.39365 14.5005 4.49765C15.6045 5.60166 15.4987 7.28457 14.5005 8.28281L12.3444 10.4389C12.3168 10.4668 12.3013 10.5044 12.3013 10.5437C12.3013 10.583 12.3168 10.6206 12.3444 10.6485L13.0829 11.387C13.1404 11.4445 13.2351 11.4445 13.2926 11.387L15.4486 9.23095C17.0165 7.66123 17.0165 5.12109 15.4486 3.55136V3.55136ZM11.3202 6.90791C11.2923 6.88028 11.2546 6.86479 11.2154 6.86479C11.1761 6.86479 11.1384 6.88028 11.1105 6.90791L6.90791 11.1087C6.88028 11.1366 6.86479 11.1743 6.86479 11.2135C6.86479 11.2528 6.88028 11.2905 6.90791 11.3184L7.64267 12.0531C7.70019 12.1106 7.79482 12.1106 7.85234 12.0531L12.0531 7.85234C12.1106 7.79482 12.1106 7.70019 12.0531 7.64267L11.3202 6.90791Z" fill="#323232"/>
</svg>
