<svg width="200" height="200" viewBox="0 0 200 200" fill="none" xmlns="http://www.w3.org/2000/svg">
<g clip-path="url(#clip0)">
<path d="M155.329 127.741C155.329 129.634 154.577 131.45 153.238 132.789C151.899 134.128 150.083 134.88 148.19 134.88C146.296 134.88 144.48 134.128 143.142 132.789C141.803 131.45 141.05 129.634 141.05 127.741C141.05 125.848 141.803 124.032 143.142 122.693C144.48 121.354 146.296 120.602 148.19 120.602C150.083 120.602 151.899 121.354 153.238 122.693C154.577 124.032 155.329 125.848 155.329 127.741V127.741ZM49.8725 29.7297C64.4569 19.3269 81.795 13.6155 99.949 13.6155C139.521 13.6155 173.483 36.767 182.458 68.6894H164.1C157.879 68.6894 152.677 66.2417 150.535 62.2642C148.19 57.8786 150.229 52.9832 152.269 49.7195L140.847 42.3763C135.135 51.3514 134.319 60.9383 138.603 68.7914C143.09 77.0525 152.881 82.254 164.1 82.254H198.674L197.552 74.5028C191.331 32.0755 149.312 0.0509949 99.949 0.0509949C78.0214 0.0509949 57.2157 7.2922 39.9796 20.2448L49.8725 29.7297V29.7297Z" fill="#A6824A"/>
<path d="M54.0541 93.0648C47.9347 93.0648 43.3452 91.127 40.0816 87.5574C31.2086 77.9704 32.9424 56.1448 33.7583 45.742L33.9623 42.7843L25.4972 34.7272L21.9276 39.0107C21.0097 40.1326 0 66.2417 0 100C0 123.661 8.26109 145.283 22.0296 162.417V162.519H22.1316C40.4895 185.365 68.5365 199.949 100.051 199.949C155.125 199.949 200 155.074 200 100V93.0648H54.0541ZM99.949 186.384C76.8995 186.384 55.9918 177.307 40.4895 162.519H98.2152V148.955H28.8628C25.7012 144.467 23.0495 139.572 20.8057 134.574H98.2152V121.01H16.2162C14.4824 114.278 13.5645 107.343 13.5645 100.102C13.5645 88.8832 16.4202 78.4804 19.8878 69.9133C20.8057 79.8062 23.5594 89.8011 30.1887 96.9403C36.104 103.264 44.1611 106.833 54.156 106.833H186.13C182.56 151.3 145.334 186.384 99.949 186.384Z" fill="#A6824A"/>
</g>
<defs>
<clipPath id="clip0">
<rect width="200" height="200" fill="white"/>
</clipPath>
</defs>
</svg>
