<svg width="19" height="22" viewBox="0 0 19 22" fill="none" xmlns="http://www.w3.org/2000/svg">
<path d="M17.3003 5.86614C17.2937 5.77863 17.2205 5.71094 17.1328 5.71094H14.1094V4.87109C14.1094 2.18511 11.9241 0 9.23826 0C6.55244 0 4.36716 2.18511 4.36716 4.87109V5.71094H1.34373C1.25605 5.71094 1.18281 5.77863 1.17626 5.86614L0.000481577 21.3193C-0.00304577 21.3658 0.0129113 21.4118 0.0448253 21.4461C0.0765714 21.4805 0.121251 21.5 0.167946 21.5H18.3086C18.3553 21.5 18.3999 21.4805 18.4317 21.4463C18.4634 21.412 18.4796 21.366 18.476 21.3194L17.3003 5.86614ZM5.71091 4.87109C5.71091 2.92618 7.29318 1.34375 9.23826 1.34375C11.1833 1.34375 12.7656 2.92618 12.7656 4.87109V5.71094H5.71091V4.87109ZM5.03904 10.4141C4.11269 10.4141 3.35935 9.66055 3.35935 8.73438C3.35935 8.06401 3.69529 7.46 4.36716 7.19494V8.73438C4.36716 9.10491 4.66867 9.40625 5.03904 9.40625C5.40941 9.40625 5.71091 9.10491 5.71091 8.73438V7.19595C6.38279 7.461 6.71873 8.06955 6.71873 8.73438C6.71873 9.66055 5.96539 10.4141 5.03904 10.4141ZM13.4375 10.4141C12.5111 10.4141 11.7578 9.66055 11.7578 8.73438C11.7578 8.06401 12.0937 7.46 12.7656 7.19494V8.73438C12.7656 9.10491 13.0671 9.40625 13.4375 9.40625C13.8078 9.40625 14.1094 9.10491 14.1094 8.73438V7.19595C14.7812 7.461 15.1172 8.06955 15.1172 8.73438C15.1172 9.66055 14.3638 10.4141 13.4375 10.4141Z" fill="black"/>
</svg>
