<svg width="19" height="19" viewBox="0 0 19 19" fill="none" xmlns="http://www.w3.org/2000/svg">
<path d="M3.94487 5.69762C4.90152 5.69762 5.67704 4.92211 5.67704 3.96546C5.67704 3.00881 4.90152 2.23329 3.94487 2.23329C2.98822 2.23329 2.21271 3.00881 2.21271 3.96546C2.21271 4.92211 2.98822 5.69762 3.94487 5.69762Z" fill="#323232"/>
<path d="M7.31263 7.0102V16.6202H10.2964V11.8679C10.2964 10.6139 10.5323 9.39946 12.0872 9.39946C13.6206 9.39946 13.6396 10.8332 13.6396 11.947V16.621H16.625V11.3509C16.625 8.76216 16.0677 6.77271 13.0419 6.77271C11.5892 6.77271 10.6155 7.56991 10.2173 8.32437H10.1769V7.0102H7.31263V7.0102ZM2.45021 7.0102H5.43875V16.6202H2.45021V7.0102Z" fill="#323232"/>
</svg>
