<svg width="19" height="19" viewBox="0 0 19 19" fill="none" xmlns="http://www.w3.org/2000/svg">
<path d="M18.7174 3.90846C18.0563 4.20138 17.3462 4.3993 16.5997 4.48876C17.37 4.02784 17.9462 3.30242 18.221 2.44784C17.4973 2.87771 16.7052 3.18028 15.8793 3.34242C15.3238 2.74936 14.5881 2.35626 13.7863 2.22417C12.9846 2.09208 12.1617 2.22838 11.4453 2.61191C10.729 2.99545 10.1593 3.60475 9.82471 4.34523C9.49013 5.08571 9.40938 5.91593 9.595 6.70701C8.12859 6.63338 6.69404 6.25223 5.38446 5.5883C4.07488 4.92438 2.91954 3.99251 1.99342 2.85317C1.67675 3.39942 1.49467 4.03276 1.49467 4.70726C1.49431 5.31446 1.64384 5.91236 1.92999 6.44792C2.21613 6.98347 2.63004 7.44012 3.135 7.77734C2.54938 7.7587 1.97669 7.60047 1.46458 7.3158V7.3633C1.46452 8.21492 1.75911 9.04035 2.29835 9.6995C2.8376 10.3587 3.58829 10.8109 4.42304 10.9796C3.87979 11.1267 3.31022 11.1483 2.75737 11.043C2.99289 11.7757 3.45166 12.4165 4.06946 12.8756C4.68725 13.3347 5.43314 13.5891 6.20271 13.6032C4.89633 14.6287 3.28295 15.185 1.62212 15.1826C1.32793 15.1827 1.03398 15.1655 0.741791 15.1311C2.42763 16.2151 4.39006 16.7903 6.39429 16.7881C13.1789 16.7881 16.8878 11.1688 16.8878 6.29534C16.8878 6.13701 16.8839 5.97709 16.8768 5.81875C17.5982 5.29703 18.2209 4.65096 18.7158 3.91084L18.7174 3.90846V3.90846Z" fill="#323232"/>
</svg>
