<svg data-bbox="2 2 196.1 196" viewBox="2 2 196.1 196" height="200" width="200" xmlns="http://www.w3.org/2000/svg" data-type="shape"><path d="M154.3 127.2a7 7 0 11-14 0 7 7 0 0114 0zM50.9 31.1C65.2 20.9 82.2 15.3 100 15.3c38.8 0 72.1 22.7 80.9 54h-18c-6.1 0-11.2-2.4-13.3-6.3-2.3-4.3-.3-9.1 1.7-12.3l-11.2-7.2c-5.6 8.8-6.4 18.2-2.2 25.9 4.4 8.1 14 13.2 25 13.2h33.9l-1.1-7.6C189.6 33.4 148.4 2 100 2 78.5 2 58.1 9.1 41.2 21.8l9.7 9.3z"/><path d="M55 93.2c-6 0-10.5-1.9-13.7-5.4-8.7-9.4-7-30.8-6.2-41l.2-2.9L27 36l-3.5 4.2C22.6 41.3 2 66.9 2 100c0 23.2 8.1 44.4 21.6 61.2v.1h.1c18 22.4 45.5 36.7 76.4 36.7 54 0 98-44 98-98v-6.8H55zm45 91.5c-22.6 0-43.1-8.9-58.3-23.4h56.6V148h-68c-3.1-4.4-5.7-9.2-7.9-14.1h75.9v-13.3H17.9c-1.7-6.6-2.6-13.4-2.6-20.5 0-11 2.8-21.2 6.2-29.6.9 9.7 3.6 19.5 10.1 26.5 5.8 6.2 13.7 9.7 23.5 9.7h129.4c-3.5 43.6-40 78-84.5 78z"/></svg>